<?xml version="1.0" encoding="UTF-8" standalone="no"?>
<!-- Created with Inkscape (http://www.inkscape.org/) -->

<svg
   xmlns:dc="http://purl.org/dc/elements/1.1/"
   xmlns:cc="http://creativecommons.org/ns#"
   xmlns:rdf="http://www.w3.org/1999/02/22-rdf-syntax-ns#"
   xmlns:svg="http://www.w3.org/2000/svg"
   xmlns="http://www.w3.org/2000/svg"
   version="1.1"
   width="175.15956"
   height="174.18307"
   id="svg3022">
  <defs
     id="defs3024" />
  <metadata
     id="metadata3027">
    <rdf:RDF>
      <cc:Work
         rdf:about="">
        <dc:format>image/svg+xml</dc:format>
        <dc:type
           rdf:resource="http://purl.org/dc/dcmitype/StillImage" />
        <dc:title></dc:title>
      </cc:Work>
    </rdf:RDF>
  </metadata>
  <g
     transform="translate(-371.68187,-246.63526)"
     id="layer1">
    <g
       transform="matrix(6.0473482,0,0,6.0473482,327.02933,-5817.5495)"
       id="g3803"
       style="display:inline">
      <path
         d="m 10.492345,1026.2172 c -4.8771719,-8.103 -3.6419957,-14.3853 1.830175,-19.6864 3.433734,-3.3264 6.235827,-2.7276 6.240876,-1.9626 0.08377,7.038 -1.625959,13.5774 -3.277183,20.2818 -0.951883,4.3421 -1.910718,5.5852 -4.793868,1.3672 z m 12.618388,-12.9378 c -1.452158,-3.0811 -5.978423,-10.9785 0.168219,-10.4273 11.283203,-0.014 16.808616,16.538 10.162104,20.762 -1.230829,0.9775 -8.015323,-5.5419 -10.330323,-10.3347 z"
         id="path3035-2-5-3-0-2"
         style="fill:#dd4900;fill-opacity:1;stroke:#000000;stroke-width:0;stroke-miterlimit:4;stroke-opacity:1;stroke-dasharray:none" />
      <path
         d="m 16.776387,1029.1542 c -0.400568,-0.9714 -0.430175,-2.174 0.13634,-3.8608 1.74347,-5.1942 8.244611,-6.4468 11.753032,-2.2643 5.6975,6.4418 -8.518086,11.8813 -11.889372,6.1251 z"
         id="path4280-5"
         style="fill:#dd4900;fill-opacity:1;stroke:none" />
    </g>
  </g>
</svg>
